<?xml version="1.0" encoding="UTF-8"?>
<!DOCTYPE svg PUBLIC "-//W3C//DTD SVG 1.1//EN" "http://www.w3.org/Graphics/SVG/1.1/DTD/svg11.dtd">
<svg xmlns="http://www.w3.org/2000/svg" version="1.1" width="1014px" height="86px" style="shape-rendering:geometricPrecision; text-rendering:geometricPrecision; image-rendering:optimizeQuality; fill-ruleffffff; clip-rule:evenodd" xmlns:xlink="http://www.w3.org/1999/xlink">
<g><path style="opacity:1" fill="#ffffff" d="M -0.5,-0.5 C 337.167,-0.5 674.833,-0.5 1012.5,-0.5C 1012.5,23.1667 1012.5,46.8333 1012.5,70.5C 967.963,71.689 923.629,69.3557 879.5,63.5C 875.361,62.4371 871.028,61.7704 866.5,61.5C 865.5,61.5 864.5,61.5 863.5,61.5C 859.433,59.9462 855.1,59.2796 850.5,59.5C 827.514,57.6347 804.514,55.968 781.5,54.5C 773.356,53.3217 765.022,52.6551 756.5,52.5C 697.544,48.7319 638.544,47.7319 579.5,49.5C 569.296,49.3539 559.296,50.0206 549.5,51.5C 532.097,52.842 514.763,54.842 497.5,57.5C 493.96,57.7526 490.627,58.4192 487.5,59.5C 477.703,60.6326 468.036,62.2993 458.5,64.5C 444.659,66.1982 430.993,68.1982 417.5,70.5C 411.949,70.527 406.616,71.1937 401.5,72.5C 356.791,77.3548 312.125,80.6882 267.5,82.5C 254.158,82.567 240.825,82.9004 227.5,83.5C 165.648,85.3388 103.982,82.8388 42.5,76C 28.1106,74.0458 13.7773,71.8792 -0.5,69.5C -0.5,46.1667 -0.5,22.8333 -0.5,-0.5 Z"/></g>
<g><path style="opacity:0.054" fill="#ffffff" d="M 1012.5,-0.5 C 1012.83,-0.5 1013.17,-0.5 1013.5,-0.5C 1013.5,27.8333 1013.5,56.1667 1013.5,84.5C 1012.24,83.4855 1011.57,81.9855 1011.5,80C 1012.09,77.3574 1012.09,74.8574 1011.5,72.5C 1011.83,71.8333 1012.17,71.1667 1012.5,70.5C 1012.5,46.8333 1012.5,23.1667 1012.5,-0.5 Z"/></g>
<g><path style="opacity:0.133" fill="#ffffff" d="M 579.5,49.5 C 575.167,50.1667 570.833,50.8333 566.5,51.5C 565.833,51.5 565.167,51.5 564.5,51.5C 559.5,51.5 554.5,51.5 549.5,51.5C 559.296,50.0206 569.296,49.3539 579.5,49.5 Z"/></g>
<g><path style="opacity:0.036" fill="#ffffff" d="M 756.5,52.5 C 758.167,53.1667 759.833,53.8333 761.5,54.5C 696.835,50.594 631.835,49.594 566.5,51.5C 570.833,50.8333 575.167,50.1667 579.5,49.5C 638.544,47.7319 697.544,48.7319 756.5,52.5 Z"/></g>
<g><path style="opacity:0.31" fill="#ffffff" d="M 756.5,52.5 C 765.022,52.6551 773.356,53.3217 781.5,54.5C 776.833,54.5 772.167,54.5 767.5,54.5C 765.5,54.5 763.5,54.5 761.5,54.5C 759.833,53.8333 758.167,53.1667 756.5,52.5 Z"/></g>
<g><path style="opacity:0.196" fill="#ffffff" d="M 549.5,51.5 C 554.5,51.5 559.5,51.5 564.5,51.5C 541.556,53.43 518.556,56.0967 495.5,59.5C 496.167,58.8333 496.833,58.1667 497.5,57.5C 514.763,54.842 532.097,52.842 549.5,51.5 Z"/></g>
<g><path style="opacity:0.294" fill="#ffffff" d="M 767.5,54.5 C 772.167,54.5 776.833,54.5 781.5,54.5C 804.514,55.968 827.514,57.6347 850.5,59.5C 854.618,60.7089 858.951,61.3755 863.5,61.5C 864.5,61.5 865.5,61.5 866.5,61.5C 867.5,62.1667 868.5,62.8333 869.5,63.5C 835.391,60.083 801.391,57.083 767.5,54.5 Z"/></g>
<g><path style="opacity:0.227" fill="#ffffff" d="M 497.5,57.5 C 496.833,58.1667 496.167,58.8333 495.5,59.5C 492.833,59.5 490.167,59.5 487.5,59.5C 490.627,58.4192 493.96,57.7526 497.5,57.5 Z"/></g>
<g><path style="opacity:1" fill="#ffffff" d="M 850.5,59.5 C 855.1,59.2796 859.433,59.9462 863.5,61.5C 858.951,61.3755 854.618,60.7089 850.5,59.5 Z"/></g>
<g><path style="opacity:0.082" fill="#ffffff" d="M 487.5,59.5 C 490.167,59.5 492.833,59.5 495.5,59.5C 482.295,62.0349 468.962,64.3682 455.5,66.5C 456.5,65.8333 457.5,65.1667 458.5,64.5C 468.036,62.2993 477.703,60.6326 487.5,59.5 Z"/></g>
<g><path style="opacity:0.416" fill="#ffffff" d="M 866.5,61.5 C 871.028,61.7704 875.361,62.4371 879.5,63.5C 876.167,63.5 872.833,63.5 869.5,63.5C 868.5,62.8333 867.5,62.1667 866.5,61.5 Z"/></g>
<g><path style="opacity:0.055" fill="#ffffff" d="M 869.5,63.5 C 872.833,63.5 876.167,63.5 879.5,63.5C 923.629,69.3557 967.963,71.689 1012.5,70.5C 1012.17,71.1667 1011.83,71.8333 1011.5,72.5C 963.744,73.7896 916.411,70.7896 869.5,63.5 Z"/></g>
<g><path style="opacity:0.2" fill="#ffffff" d="M 458.5,64.5 C 457.5,65.1667 456.5,65.8333 455.5,66.5C 448.238,67.9323 440.904,68.9323 433.5,69.5C 428.167,69.8333 422.833,70.1667 417.5,70.5C 430.993,68.1982 444.659,66.1982 458.5,64.5 Z"/></g>
<g><path style="opacity:0.424" fill="#ffffff" d="M 417.5,70.5 C 412.402,71.9573 407.069,72.624 401.5,72.5C 406.616,71.1937 411.949,70.527 417.5,70.5 Z"/></g>
<g><path style="opacity:0.078" fill="#ffffff" d="M 433.5,69.5 C 419.109,71.9368 404.609,74.2701 390,76.5C 389.275,75.9415 388.442,75.6082 387.5,75.5C 372.747,77.3765 358.081,78.7098 343.5,79.5C 328.579,81.3191 313.579,82.3191 298.5,82.5C 288.167,82.5 277.833,82.5 267.5,82.5C 312.125,80.6882 356.791,77.3548 401.5,72.5C 407.069,72.624 412.402,71.9573 417.5,70.5C 422.833,70.1667 428.167,69.8333 433.5,69.5 Z"/></g>
<g><path style="opacity:0.176" fill="#ffffff" d="M -0.5,70.5 C -0.5,70.1667 -0.5,69.8333 -0.5,69.5C 13.7773,71.8792 28.1106,74.0458 42.5,76C 103.982,82.8388 165.648,85.3388 227.5,83.5C 200.338,84.4979 173.005,84.8312 145.5,84.5C 116.719,84.3952 88.0524,82.7286 59.5,79.5C 57.2635,79.4165 54.9302,79.7498 52.5,80.5C 34.9197,76.8472 17.253,73.5138 -0.5,70.5 Z"/></g>
<g><path style="opacity:0.142" fill="#ffffff" d="M 267.5,82.5 C 277.833,82.5 288.167,82.5 298.5,82.5C 283.184,83.8104 267.851,84.8104 252.5,85.5C 251.167,85.5 249.833,85.5 248.5,85.5C 245.167,84.1667 241.833,84.1667 238.5,85.5C 207.5,85.5 176.5,85.5 145.5,85.5C 145.5,85.1667 145.5,84.8333 145.5,84.5C 173.005,84.8312 200.338,84.4979 227.5,83.5C 240.825,82.9004 254.158,82.567 267.5,82.5 Z"/></g>
</svg>
