<?xml version="1.0" encoding="UTF-8"?>
<!DOCTYPE svg PUBLIC "-//W3C//DTD SVG 1.1//EN" "http://www.w3.org/Graphics/SVG/1.1/DTD/svg11.dtd">
<svg xmlns="http://www.w3.org/2000/svg" version="1.1" width="1014px" height="84px" style="shape-rendering:geometricPrecision; text-rendering:geometricPrecision; image-rendering:optimizeQuality; fill-ruleffffff; clip-rule:evenodd" xmlns:xlink="http://www.w3.org/1999/xlink">
<g><path style="opacity:0.837" fill="#ffffff" d="M 298.5,-0.5 C 318.167,-0.5 337.833,-0.5 357.5,-0.5C 357.5,0.166667 357.833,0.5 358.5,0.5C 358.5,0.833333 358.5,1.16667 358.5,1.5C 346.493,1.45625 334.493,1.12292 322.5,0.5C 293.497,1.4786 264.497,2.4786 235.5,3.5C 256.48,1.81976 277.48,0.486423 298.5,-0.5 Z"/></g>
<g><path style="opacity:1" fill="#ffffff" d="M 358.5,1.5 C 427.486,2.18659 496.153,7.18659 564.5,16.5C 567.059,16.1984 569.393,16.5318 571.5,17.5C 653.286,33.2412 735.619,46.4078 818.5,57C 832.459,58.7188 846.459,59.8855 860.5,60.5C 904.542,65.5787 948.875,68.5787 993.5,69.5C 993.833,69.5 994.167,69.5 994.5,69.5C 1000.31,70.4896 1006.31,70.8229 1012.5,70.5C 1012.5,74.8333 1012.5,79.1667 1012.5,83.5C 674.833,83.5 337.167,83.5 -0.5,83.5C -0.5,64.1667 -0.5,44.8333 -0.5,25.5C -0.166667,25.5 0.166667,25.5 0.5,25.5C 6.4173,25.784 12.084,25.1173 17.5,23.5C 21.0991,22.6561 24.7657,22.3227 28.5,22.5C 41.0863,22.2161 53.4196,20.8828 65.5,18.5C 72.0723,18.761 78.4056,18.0943 84.5,16.5C 88.0641,15.5773 91.7307,15.244 95.5,15.5C 106.057,15.3439 116.391,14.3439 126.5,12.5C 132.959,11.1873 139.626,10.5207 146.5,10.5C 157.714,10.2685 168.714,9.26845 179.5,7.5C 183.634,6.51511 187.968,6.18178 192.5,6.5C 201.378,6.66523 210.045,5.99856 218.5,4.5C 224.075,3.5476 229.741,3.21427 235.5,3.5C 264.497,2.4786 293.497,1.4786 322.5,0.5C 334.493,1.12292 346.493,1.45625 358.5,1.5 Z"/></g>
<g><path style="opacity:0.073" fill="#ffffff" d="M 218.5,4.5 C 210.045,5.99856 201.378,6.66523 192.5,6.5C 200.968,5.18187 209.635,4.5152 218.5,4.5 Z"/></g>
<g><path style="opacity:0.039" fill="#ffffff" d="M 358.5,-0.5 C 358.833,-0.5 359.167,-0.5 359.5,-0.5C 399.718,0.828159 440.051,2.99483 480.5,6C 508.789,8.36943 536.789,11.8694 564.5,16.5C 496.153,7.18659 427.486,2.18659 358.5,1.5C 358.5,1.16667 358.5,0.833333 358.5,0.5C 358.5,0.166667 358.5,-0.166667 358.5,-0.5 Z"/></g>
<g><path style="opacity:0.627" fill="#ffffff" d="M 179.5,7.5 C 168.714,9.26845 157.714,10.2685 146.5,10.5C 157.286,8.73155 168.286,7.73155 179.5,7.5 Z"/></g>
<g><path style="opacity:0.061" fill="#ffffff" d="M 126.5,12.5 C 116.391,14.3439 106.057,15.3439 95.5,15.5C 105.622,13.7883 115.955,12.7883 126.5,12.5 Z"/></g>
<g><path style="opacity:0.036" fill="#ffffff" d="M 84.5,16.5 C 78.4056,18.0943 72.0723,18.761 65.5,18.5C 71.6301,17.2528 77.9635,16.5862 84.5,16.5 Z"/></g>
<g><path style="opacity:0.827" fill="#ffffff" d="M 65.5,18.5 C 53.4196,20.8828 41.0863,22.2161 28.5,22.5C 40.6429,20.7179 52.9763,19.3846 65.5,18.5 Z"/></g>
<g><path style="opacity:0.784" fill="#ffffff" d="M 17.5,23.5 C 12.084,25.1173 6.4173,25.784 0.5,25.5C 5.96013,24.2627 11.6268,23.596 17.5,23.5 Z"/></g>
<g><path style="opacity:0.129" fill="#ffffff" d="M 571.5,17.5 C 626.914,26.0822 682.247,35.2489 737.5,45C 778.542,51.021 819.542,56.1876 860.5,60.5C 846.459,59.8855 832.459,58.7188 818.5,57C 735.619,46.4078 653.286,33.2412 571.5,17.5 Z"/></g>
<g><path style="opacity:0.38" fill="#ffffff" d="M 860.5,60.5 C 904.958,63.9081 949.291,66.9081 993.5,69.5C 948.875,68.5787 904.542,65.5787 860.5,60.5 Z"/></g>
<g><path style="opacity:0.062" fill="#ffffff" d="M 1013.5,67.5 C 1013.5,72.8333 1013.5,78.1667 1013.5,83.5C 1013.17,83.5 1012.83,83.5 1012.5,83.5C 1012.5,79.1667 1012.5,74.8333 1012.5,70.5C 1006.31,70.8229 1000.31,70.4896 994.5,69.5C 1001.12,70.0599 1007.45,69.3932 1013.5,67.5 Z"/></g>
</svg>
